<svg xmlns="http://www.w3.org/2000/svg" xmlns:xlink="http://www.w3.org/1999/xlink" width="793.7" height="70" viewBox="0 0 793.7 70"><defs><clipPath id="a"><rect width="793.7" height="70" transform="translate(869)" fill="#fff"/></clipPath></defs><g transform="translate(-869)" clip-path="url(#a)"><rect width="1042" height="50" fill="#272727"/><text transform="translate(28 32)" fill="#fff" font-size="20" font-family="Montserrat-Regular, Montserrat"><tspan x="0" y="0">QR skripta za </tspan><tspan y="0" font-family="Montserrat-Black, Montserrat" font-weight="800">FIZIKU</tspan></text><g transform="translate(1486.879 12.897)"><g transform="translate(26.529 2.952)"><path d="M-68.872-36.023V-34.9a3.082,3.082,0,0,0-1.258-.918,4.459,4.459,0,0,0-1.669-.3,4.641,4.641,0,0,0-2.175.506,3.826,3.826,0,0,0-1.535,1.433,4.023,4.023,0,0,0-.562,2.129,4.064,4.064,0,0,0,.562,2.137,3.86,3.86,0,0,0,1.535,1.448,4.581,4.581,0,0,0,2.175.514,4.347,4.347,0,0,0,1.6-.285,3.253,3.253,0,0,0,1.234-.839v.443a2.59,2.59,0,0,1-.649,1.931,2.834,2.834,0,0,1-2.041.633,5.489,5.489,0,0,1-1.717-.277,4.231,4.231,0,0,1-1.4-.736l-.886,1.488a4.9,4.9,0,0,0,1.8.894,8.451,8.451,0,0,0,2.31.309q4.556,0,4.556-4.464v-7.17ZM-71.5-29.629a2.613,2.613,0,0,1-1.859-.673,2.284,2.284,0,0,1-.72-1.749,2.241,2.241,0,0,1,.72-1.725,2.632,2.632,0,0,1,1.859-.665,2.61,2.61,0,0,1,1.843.665,2.241,2.241,0,0,1,.72,1.725,2.284,2.284,0,0,1-.72,1.749,2.592,2.592,0,0,1-1.843.673m8.353-5.16v-1.235h-1.883v8.453h1.978v-4.1A2.684,2.684,0,0,1-62.4-33.61a2.388,2.388,0,0,1,1.8-.673,2.519,2.519,0,0,1,.459.047v-1.884a3.294,3.294,0,0,0-3.006,1.33m7.23-1.33a7.112,7.112,0,0,0-1.978.269,4.8,4.8,0,0,0-1.6.776l.775,1.44a3.447,3.447,0,0,1,1.163-.617,4.544,4.544,0,0,1,1.4-.222A2.292,2.292,0,0,1-54.578-34a1.733,1.733,0,0,1,.53,1.361v.127h-2.183a4.2,4.2,0,0,0-2.666.689,2.238,2.238,0,0,0-.846,1.828,2.288,2.288,0,0,0,.388,1.306,2.565,2.565,0,0,0,1.1.9,3.975,3.975,0,0,0,1.661.324,4.05,4.05,0,0,0,1.622-.293,2.3,2.3,0,0,0,1.036-.847v1.029h1.867v-4.954a3.459,3.459,0,0,0-.989-2.7,4.12,4.12,0,0,0-2.856-.894m-.269,7.218a1.957,1.957,0,0,1-1.187-.316,1.009,1.009,0,0,1-.427-.855q0-1.124,1.709-1.124h2.041v.981a1.851,1.851,0,0,1-.815.973,2.551,2.551,0,0,1-1.321.34M-43.8-39.316v4.337a3.086,3.086,0,0,0-1.187-.855,4.014,4.014,0,0,0-1.535-.285,4.451,4.451,0,0,0-2.191.538,3.88,3.88,0,0,0-1.527,1.52,4.525,4.525,0,0,0-.554,2.264,4.569,4.569,0,0,0,.554,2.271A3.863,3.863,0,0,0-48.708-28a4.449,4.449,0,0,0,2.191.538,4.089,4.089,0,0,0,1.59-.3,3.058,3.058,0,0,0,1.21-.9v1.092h1.9V-39.316ZM-46.28-29.154a2.542,2.542,0,0,1-1.282-.324,2.344,2.344,0,0,1-.9-.926A2.834,2.834,0,0,1-48.8-31.8a2.836,2.836,0,0,1,.332-1.393,2.346,2.346,0,0,1,.9-.926,2.544,2.544,0,0,1,1.282-.325A2.543,2.543,0,0,1-45-34.116a2.345,2.345,0,0,1,.9.926,2.834,2.834,0,0,1,.332,1.393A2.832,2.832,0,0,1-44.1-30.4a2.343,2.343,0,0,1-.9.926,2.542,2.542,0,0,1-1.282.324m6.423,1.583h1.978v-8.453h-1.978Zm1-9.845a1.231,1.231,0,0,0,.91-.356,1.194,1.194,0,0,0,.356-.878,1.047,1.047,0,0,0-.364-.815,1.307,1.307,0,0,0-.9-.324,1.27,1.27,0,0,0-.9.34,1.112,1.112,0,0,0-.364.847,1.111,1.111,0,0,0,.364.847,1.269,1.269,0,0,0,.9.34m8.954,1.393-2.706,6.268-2.626-6.268h-2.057l3.623,8.453h2.041l3.623-8.453Zm6.059,8.563a4.824,4.824,0,0,0,2.326-.554,4.038,4.038,0,0,0,1.606-1.543,4.36,4.36,0,0,0,.577-2.24,4.319,4.319,0,0,0-.577-2.232,4.058,4.058,0,0,0-1.606-1.535,4.827,4.827,0,0,0-2.326-.554,4.792,4.792,0,0,0-2.31.554,4.054,4.054,0,0,0-1.606,1.535,4.317,4.317,0,0,0-.577,2.232,4.358,4.358,0,0,0,.577,2.24,4.035,4.035,0,0,0,1.606,1.543,4.79,4.79,0,0,0,2.31.554m0-1.694a2.389,2.389,0,0,1-1.8-.728,2.639,2.639,0,0,1-.7-1.915,2.639,2.639,0,0,1,.7-1.915,2.39,2.39,0,0,1,1.8-.728,2.416,2.416,0,0,1,1.8.728,2.622,2.622,0,0,1,.712,1.915,2.622,2.622,0,0,1-.712,1.915,2.415,2.415,0,0,1-1.8.728M-17.6-27.46a1.263,1.263,0,0,0,.918-.372,1.262,1.262,0,0,0,.38-.942,1.271,1.271,0,0,0-.372-.95,1.271,1.271,0,0,0-.926-.364,1.27,1.27,0,0,0-.925.364,1.27,1.27,0,0,0-.372.95,1.262,1.262,0,0,0,.38.942,1.263,1.263,0,0,0,.918.372m7.388-8.658a4.441,4.441,0,0,0-1.606.277,3.217,3.217,0,0,0-1.21.8v-4.274H-15v11.745h1.978v-4.274a2.619,2.619,0,0,1,.633-1.891,2.282,2.282,0,0,1,1.724-.657,1.93,1.93,0,0,1,1.487.562,2.374,2.374,0,0,1,.522,1.67v4.59h1.978v-4.844a3.686,3.686,0,0,0-.965-2.77,3.53,3.53,0,0,0-2.563-.934m7.293,1.33v-1.235H-4.8v8.453H-2.82v-4.1a2.683,2.683,0,0,1,.649-1.939,2.388,2.388,0,0,1,1.8-.673,2.521,2.521,0,0,1,.459.047v-1.884a3.3,3.3,0,0,0-3.006,1.33" transform="translate(76.07 39.791)" fill="#272727"/></g><path d="M-171.508-188.243l-1.5-2.63-1.46-2.548-2.584,1.483,1.5,2.615a7.846,7.846,0,0,1-2.83.514,8.078,8.078,0,0,1-8.066-8.07,8.078,8.078,0,0,1,8.066-8.07,8.027,8.027,0,0,1,5.7,2.362l2.108-2.109a10.976,10.976,0,0,0-7.812-3.234,11.062,11.062,0,0,0-11.045,11.05,11.067,11.067,0,0,0,11.045,11.05,10.911,10.911,0,0,0,4.327-.887l1.594,2.787,2.584-1.483Z" transform="translate(189.434 207.929)" fill="#272727"/><g transform="translate(8.957 6.98)"><path d="M0-77.793,7.042-81.86,0-85.928Z" transform="translate(0 85.928)" fill="#ffac3f"/></g></g><path d="M2980.1-14203H2384.748" transform="translate(-1345.347 14252.5)" fill="none" stroke="#272727" stroke-width="1"/><path d="M2422.147-14203h-37.4" transform="translate(-12576 -2353.748) rotate(90)" fill="none" stroke="#272727" stroke-width="1" stroke-dasharray="2"/><g transform="translate(1624 46.699)" fill="#272727" stroke="#272727" stroke-width="1"><rect width="6" height="6" stroke="none"/><rect x="0.5" y="0.5" width="5" height="5" fill="none"/></g></g></svg>