<svg xmlns="http://www.w3.org/2000/svg" xmlns:xlink="http://www.w3.org/1999/xlink" width="793.7" height="70" viewBox="0 0 793.7 70"><defs><clipPath id="a"><rect width="793.7" height="70" transform="translate(869 1053)" fill="#fff"/></clipPath></defs><g transform="translate(-869 -1053)" clip-path="url(#a)"><g transform="translate(-51.418)"><text transform="translate(946.418 1102)" font-size="12" font-family="Montserrat-ExtraBold, Montserrat" font-weight="800"><tspan x="0" y="0">#gradivogeneracija</tspan></text><path d="M12.377,5.741A5.745,5.745,0,0,1,9.02,4.668V9.556A4.446,4.446,0,1,1,5.184,5.15V7.609A2.041,2.041,0,1,0,6.613,9.556V0H9.02a3.314,3.314,0,0,0,.051.606h0A3.342,3.342,0,0,0,10.545,2.8a3.321,3.321,0,0,0,1.832.551Z" transform="translate(1234.197 1091)"/><path d="M6.928,35.236a3.589,3.589,0,1,0,3.589,3.589A3.584,3.584,0,0,0,6.928,35.236Zm0,5.923a2.334,2.334,0,1,1,2.334-2.334,2.338,2.338,0,0,1-2.334,2.334Zm4.573-6.07a.837.837,0,1,1-.837-.837A.835.835,0,0,1,11.5,35.089Zm2.377.85a4.143,4.143,0,0,0-1.131-2.933,4.17,4.17,0,0,0-2.933-1.131c-1.156-.066-4.62-.066-5.776,0A4.164,4.164,0,0,0,1.105,33,4.157,4.157,0,0,0-.026,35.935c-.066,1.156-.066,4.62,0,5.776a4.143,4.143,0,0,0,1.131,2.933,4.176,4.176,0,0,0,2.933,1.131c1.156.066,4.62.066,5.776,0a4.143,4.143,0,0,0,2.933-1.131,4.17,4.17,0,0,0,1.131-2.933C13.945,40.556,13.945,37.094,13.879,35.938Zm-1.493,7.013a2.363,2.363,0,0,1-1.331,1.331,15.429,15.429,0,0,1-4.127.281A15.549,15.549,0,0,1,2.8,44.283a2.363,2.363,0,0,1-1.331-1.331,15.429,15.429,0,0,1-.281-4.127A15.549,15.549,0,0,1,1.471,34.7,2.363,2.363,0,0,1,2.8,33.367a15.429,15.429,0,0,1,4.127-.281,15.549,15.549,0,0,1,4.127.281A2.363,2.363,0,0,1,12.386,34.7a15.429,15.429,0,0,1,.281,4.127A15.42,15.42,0,0,1,12.386,42.952Z" transform="translate(1192.49 1059.174)"/><path d="M29.9,7.875l.389-2.534H27.855V3.7a1.267,1.267,0,0,1,1.428-1.369h1.105V.171A13.478,13.478,0,0,0,28.426,0a3.093,3.093,0,0,0-3.311,3.41V5.341H22.89V7.875h2.226V14h2.739V7.875Z" transform="translate(1134.952 1091)"/><path d="M28.64,65.54A1.759,1.759,0,0,0,27.4,64.294,41.572,41.572,0,0,0,21.933,64a41.572,41.572,0,0,0-5.47.294,1.759,1.759,0,0,0-1.238,1.246,19.807,19.807,0,0,0,0,6.783,1.733,1.733,0,0,0,1.238,1.226,41.573,41.573,0,0,0,5.47.294,41.573,41.573,0,0,0,5.47-.294,1.733,1.733,0,0,0,1.238-1.226,19.807,19.807,0,0,0,0-6.783ZM20.5,71.013V66.85l3.659,2.082Z" transform="translate(1101.089 1029)"/><g transform="translate(945.706 1058)"><path d="M3127.16-14203H2384.748" transform="translate(-2384.748 14221.5)" fill="none" stroke="#272727" stroke-width="1"/><path d="M37.4,0H0" transform="translate(734.659) rotate(90)" fill="none" stroke="#272727" stroke-width="1" stroke-dasharray="2"/><g transform="translate(731.659 15.699)" fill="#272727" stroke="#272727" stroke-width="1"><rect width="6" height="6" stroke="none"/><rect x="0.5" y="0.5" width="5" height="5" fill="none"/></g></g></g></g></svg>